#N canvas 82 51 1920 989 12;
#X obj 234 394 bng 19 250 50 0 empty empty empty 0 -10 0 12 #fcfcfc #000000 #000000;
#X obj 158 104 netreceive -u -b 9000;
#X obj 152 168 oscparse;
#X msg 253 451 0.1 \, 0 50;
#X obj 268 532 line~;
#X obj 132 547 osc~ 880;
#X obj 243 740 dac~;
#X obj 197 291 route ping;
#X obj 241 633 *~;
#X obj 198 223 list trim;
#X obj 782 738 dac~;
#X obj 748 662 *~;
#X obj 626 339 route volume;
#X obj 511 437 noise~;
#X obj 573 482 lop~;
#X obj 429 201 print;
#X obj 626 516 lop~;
#X obj 666 564 lop~;
#X msg 792 449 0.3;
#X msg 982 516 0;
#X obj 1112 282 route alert;
#X obj 1290 428 line~;
#X obj 1147 323 bng 19 250 50 0 empty empty empty 0 -10 0 12 #fcfcfc #000000 #000000;
#X obj 1238 526 *~;
#X obj 1100 424 phasor~ 400;
#X obj 1222 651 dac~;
#X msg 1157 365 0.75 \, 0 1000;
#X connect 0 0 3 0;
#X connect 1 0 2 0;
#X connect 2 0 9 0;
#X connect 3 0 4 0;
#X connect 4 0 8 1;
#X connect 5 0 8 0;
#X connect 7 0 0 0;
#X connect 7 1 12 0;
#X connect 8 0 6 0;
#X connect 8 0 6 1;
#X connect 9 0 7 0;
#X connect 9 0 20 0;
#X connect 11 0 10 0;
#X connect 11 0 10 1;
#X connect 12 0 14 1;
#X connect 12 0 16 1;
#X connect 12 0 17 1;
#X connect 13 0 14 0;
#X connect 14 0 16 0;
#X connect 16 0 17 0;
#X connect 17 0 11 0;
#X connect 18 0 11 1;
#X connect 19 0 11 1;
#X connect 20 0 22 0;
#X connect 21 0 23 1;
#X connect 22 0 26 0;
#X connect 23 0 25 0;
#X connect 23 0 25 1;
#X connect 24 0 23 0;
#X connect 26 0 21 0;
